<svg width="100" height="100" viewBox="0 0 100 100" fill="none" xmlns="http://www.w3.org/2000/svg">
  <path d="M37.209 90.4241C38.7658 90.2204 40.3385 90.6382 41.5787 91.5834L47.294 95.923C49.1833 97.359 51.8114 97.359 53.6954 95.923L59.6272 91.4163C60.7354 90.5755 62.1339 90.2048 63.5166 90.3875L70.9365 91.3536C73.2955 91.6617 75.57 90.3614 76.483 88.1838L79.338 81.3533C79.871 80.0739 80.8948 79.0609 82.1878 78.5334L89.0905 75.7083C91.2912 74.8101 92.6052 72.5542 92.2939 70.2199L91.3545 63.144C91.1487 61.6035 91.5709 60.0473 92.5261 58.8201L96.9115 53.1646C98.3628 51.2951 98.3628 48.6945 96.9115 46.8302L92.3572 40.9606C91.5075 39.8639 91.1329 38.4801 91.3176 37.1119L92.2939 29.7697C92.6052 27.4354 91.2912 25.1847 89.0905 24.2813L82.1878 21.4561C80.8948 20.9287 79.871 19.9156 79.338 18.6362L76.483 11.8057C75.5753 9.62812 73.2955 8.32782 70.9365 8.63593L63.5166 9.60201C62.1339 9.79 60.7354 9.41924 59.6324 8.5837L53.7007 4.07705C51.8114 2.64098 49.1833 2.64098 47.2993 4.07705L41.3676 8.5837C40.2593 9.41924 38.8608 9.79 37.4782 9.61245L30.0582 8.64637C27.6993 8.33827 25.4247 9.63857 24.5117 11.8162L21.662 18.6466C21.1237 19.9208 20.0999 20.9339 18.8122 21.4666L11.9095 24.2865C9.70882 25.1899 8.39476 27.4406 8.70612 29.7749L9.68243 37.1171C9.86186 38.4853 9.48716 39.8692 8.64279 40.9606L4.08845 46.8302C2.63718 48.6997 2.63718 51.3003 4.08845 53.1646L8.64279 59.0342C9.49244 60.1308 9.86713 61.5147 9.68243 62.8829L8.70612 70.2251C8.39476 72.5594 9.70882 74.8101 11.9095 75.7135L18.8122 78.5387C20.1052 79.0661 21.129 80.0792 21.662 81.3586L24.517 88.1891C25.4247 90.3667 27.7045 91.667 30.0635 91.3589L37.209 90.4241Z" fill="#3EAA63" fill-opacity="0.25" />
  <path d="M38.3414 85.8366C39.707 85.6561 41.0866 86.0265 42.1744 86.8644L47.1879 90.7115C48.8452 91.9846 51.1505 91.9846 52.8032 90.7115L58.0064 86.7162C58.9786 85.9709 60.2053 85.6422 61.4182 85.8042L67.9269 86.6607C69.9962 86.9338 71.9914 85.7811 72.7922 83.8506L75.2967 77.7952C75.7642 76.661 76.6623 75.7629 77.7964 75.2953L83.8515 72.7907C85.7819 71.9944 86.9346 69.9945 86.6615 67.9251L85.8374 61.6521C85.6569 60.2864 86.0272 58.9068 86.8651 57.8189L90.712 52.8052C91.9851 51.1478 91.9851 48.8423 90.712 47.1896L86.717 41.986C85.9717 41.0138 85.643 39.787 85.805 38.5741L86.6615 32.065C86.9346 29.9956 85.7819 28.0003 83.8515 27.1994L77.7964 24.6948C76.6623 24.2272 75.7642 23.3291 75.2967 22.1949L72.7922 16.1395C71.996 14.209 69.9962 13.0563 67.9269 13.3294L61.4182 14.1859C60.2053 14.3525 58.9786 14.0238 58.0111 13.2831L52.8078 9.28784C51.1505 8.01473 48.8452 8.01473 47.1925 9.28784L41.9893 13.2831C41.0171 14.0238 39.7904 14.3525 38.5775 14.1951L32.0688 13.3387C29.9995 13.0655 28.0043 14.2183 27.2034 16.1488L24.7037 22.2041C24.2315 23.3337 23.3334 24.2319 22.2039 24.7041L16.1488 27.204C14.2184 28.0049 13.0657 30.0002 13.3389 32.0696L14.1953 38.5787C14.3527 39.7916 14.024 41.0184 13.2833 41.986L9.28828 47.1896C8.01524 48.8469 8.01524 51.1524 9.28828 52.8052L13.2833 58.0087C14.0286 58.9809 14.3573 60.2077 14.1953 61.4207L13.3389 67.9297C13.0657 69.9991 14.2184 71.9944 16.1488 72.7953L22.2039 75.2999C23.338 75.7675 24.2361 76.6656 24.7037 77.7998L27.2081 83.8552C28.0043 85.7857 30.0041 86.9385 32.0734 86.6653L38.3414 85.8366Z" fill="#3EAA63" />
  <path d="M37.5002 49.9997L45.8335 58.333L64.5835 39.583M38.3414 85.8366C39.707 85.6561 41.0866 86.0264 42.1744 86.8644L47.1879 90.7115C48.8452 91.9846 51.1505 91.9846 52.8032 90.7115L58.0064 86.7162C58.9786 85.9709 60.2053 85.6422 61.4182 85.8042L67.9269 86.6607C69.9962 86.9338 71.9914 85.7811 72.7922 83.8506L75.2967 77.7952C75.7642 76.661 76.6623 75.7629 77.7964 75.2953L83.8515 72.7907C85.7819 71.9944 86.9346 69.9945 86.6615 67.9251L85.8374 61.6521C85.6569 60.2864 86.0272 58.9068 86.8651 57.8189L90.712 52.8052C91.9851 51.1478 91.9851 48.8423 90.712 47.1896L86.717 41.986C85.9717 41.0138 85.643 39.787 85.805 38.5741L86.6615 32.065C86.9346 29.9956 85.7819 28.0003 83.8515 27.1994L77.7964 24.6948C76.6623 24.2272 75.7642 23.3291 75.2967 22.1949L72.7922 16.1395C71.996 14.209 69.9962 13.0563 67.9269 13.3294L61.4182 14.1859C60.2053 14.3525 58.9786 14.0238 58.0111 13.2831L52.8078 9.28784C51.1505 8.01473 48.8452 8.01473 47.1925 9.28784L41.9893 13.2831C41.0171 14.0238 39.7904 14.3525 38.5775 14.1951L32.0688 13.3387C29.9995 13.0655 28.0043 14.2183 27.2034 16.1488L24.7037 22.2041C24.2315 23.3337 23.3334 24.2319 22.2039 24.7041L16.1488 27.204C14.2184 28.0049 13.0657 30.0002 13.3389 32.0696L14.1953 38.5787C14.3527 39.7916 14.024 41.0184 13.2833 41.986L9.28828 47.1896C8.01524 48.8469 8.01524 51.1524 9.28828 52.8052L13.2833 58.0087C14.0286 58.9809 14.3573 60.2077 14.1953 61.4207L13.3389 67.9297C13.0657 69.9991 14.2184 71.9944 16.1488 72.7953L22.2039 75.2999C23.338 75.7675 24.2361 76.6656 24.7037 77.7998L27.2081 83.8552C28.0043 85.7857 30.0041 86.9385 32.0734 86.6653L38.3414 85.8366Z" stroke="white" stroke-width="4" stroke-linecap="round" stroke-linejoin="round" />
</svg>