<svg width="328" height="58" viewBox="0 0 328 58" fill="none" xmlns="http://www.w3.org/2000/svg">
<rect width="328" height="58" rx="24" fill="url(#paint0_linear_414_2849)"/>
<path d="M37.7507 16.0202L35.2102 26H32.7987L31.4488 20.7599C31.4033 20.593 31.3199 20.2139 31.1986 19.6223C31.0773 19.0308 31.0065 18.6314 30.9863 18.4242C30.966 18.6719 30.8978 19.0688 30.7815 19.6148L30.5313 20.775L29.1814 26H26.785L24.237 16.0202H26.3149L27.5965 21.4651C27.829 22.5319 27.9908 23.4039 28.0818 24.0814C28.1071 23.8185 28.1652 23.4317 28.2562 22.9211C28.3523 22.4055 28.4483 21.9681 28.5444 21.6092L30.0004 16.0202H31.9949L33.4509 21.6092C33.5115 21.8266 33.5899 22.2108 33.686 22.7619C33.7668 23.1714 33.8401 23.6112 33.9059 24.0814C33.9463 23.7781 34.0171 23.3458 34.1182 22.7846C34.2244 22.2235 34.3179 21.7836 34.3988 21.4651L35.6652 16.0202H37.7507ZM43.4069 21.321C43.4019 20.8104 43.2704 20.4135 43.0126 20.1304C42.7548 19.8473 42.4034 19.7058 41.9585 19.7058C41.5187 19.7058 41.1724 19.8473 40.9196 20.1304C40.6668 20.4085 40.5227 20.8054 40.4873 21.321H43.4069ZM44.9312 25.5981C44.2133 25.957 43.3185 26.1365 42.2467 26.1365C41.0182 26.1365 40.0576 25.8003 39.365 25.1279C38.6774 24.4505 38.3336 23.4798 38.3336 22.2159C38.3336 20.952 38.6521 19.9712 39.2891 19.2735C39.9363 18.5758 40.8083 18.227 41.9054 18.227C43.0075 18.227 43.8594 18.5354 44.461 19.1522C45.0626 19.769 45.3635 20.6158 45.3635 21.6926V22.7012H40.4418C40.462 23.2978 40.6365 23.7629 40.9651 24.0966C41.2987 24.4252 41.7588 24.5895 42.3453 24.5895C43.2199 24.5895 44.0819 24.3898 44.9312 23.9904V25.5981ZM49.3608 15.3832V26H47.2829V15.3832H49.3608ZM54.8722 26.1365C52.4961 26.1365 51.308 24.8322 51.308 22.2235C51.308 20.9292 51.6291 19.9408 52.2711 19.2583C52.9183 18.5708 53.846 18.227 55.0542 18.227C55.9238 18.227 56.715 18.3989 57.4279 18.7427L56.8136 20.3579C56.0603 20.0546 55.4739 19.9029 55.0542 19.9029C53.9723 19.9029 53.4314 20.6613 53.4314 22.178C53.4314 23.6946 53.9723 24.453 55.0542 24.453C55.8075 24.453 56.5204 24.2305 57.1928 23.7856V25.5677C56.8642 25.7801 56.528 25.9267 56.1842 26.0076C55.8455 26.0935 55.4081 26.1365 54.8722 26.1365ZM63.6167 20.4641C63.369 20.09 62.9696 19.9029 62.4185 19.9029C61.8675 19.9029 61.4681 20.09 61.2204 20.4641C60.9726 20.8332 60.8488 21.4044 60.8488 22.178C60.8488 22.9464 60.9752 23.5202 61.228 23.8994C61.4807 24.2786 61.8801 24.4681 62.4261 24.4681C62.9721 24.4681 63.369 24.2786 63.6167 23.8994C63.8695 23.5202 63.9959 22.9464 63.9959 22.178C63.9959 21.4044 63.8695 20.8332 63.6167 20.4641ZM62.4413 18.227C63.5485 18.2118 64.4433 18.5683 65.1258 19.2963C65.8083 20.0192 66.1395 20.9772 66.1193 22.1704C66.1193 23.4141 65.7906 24.3873 65.1334 25.09C64.4812 25.7877 63.5712 26.1365 62.4034 26.1365C61.2962 26.1466 60.4014 25.7877 59.7189 25.0597C59.0414 24.3316 58.7103 23.3686 58.7254 22.1704C58.7254 20.9267 59.049 19.9585 59.6961 19.2659C60.3483 18.5733 61.2633 18.227 62.4413 18.227ZM74.9029 22.1704V26H72.8175V21.541C72.8175 20.9848 72.7239 20.5728 72.5369 20.3049C72.3498 20.0319 72.0616 19.8953 71.6724 19.8953C71.1415 19.8953 70.7548 20.09 70.5121 20.4793C70.2694 20.8635 70.1481 21.5081 70.1481 22.413V26H68.0702V18.3711H69.6628L69.9433 19.3493H70.0571C70.2593 18.9954 70.5525 18.7199 70.9368 18.5228C71.3261 18.3256 71.7709 18.227 72.2715 18.227C73.4191 18.227 74.1926 18.6011 74.592 19.3493H74.7816C74.9787 18.9904 75.277 18.7149 75.6764 18.5228C76.0758 18.3256 76.5283 18.227 77.0338 18.227C77.9135 18.227 78.5707 18.452 79.0055 18.9019C79.4403 19.3519 79.6577 20.0597 79.6577 21.0253V26H77.5723V21.541C77.5723 20.9848 77.4787 20.5728 77.2917 20.3049C77.1046 20.0319 76.8164 19.8953 76.4272 19.8953C75.9115 19.8953 75.5273 20.0799 75.2745 20.4489C75.0268 20.8129 74.9029 21.3868 74.9029 22.1704ZM86.6315 21.321C86.6265 20.8104 86.495 20.4135 86.2372 20.1304C85.9794 19.8473 85.628 19.7058 85.1831 19.7058C84.7433 19.7058 84.397 19.8473 84.1442 20.1304C83.8914 20.4085 83.7473 20.8054 83.7119 21.321H86.6315ZM88.1558 25.5981C87.4379 25.957 86.5431 26.1365 85.4713 26.1365C84.2428 26.1365 83.2822 25.8003 82.5896 25.1279C81.902 24.4505 81.5582 23.4798 81.5582 22.2159C81.5582 20.952 81.8767 19.9712 82.5137 19.2735C83.1609 18.5758 84.033 18.227 85.13 18.227C86.2321 18.227 87.084 18.5354 87.6856 19.1522C88.2873 19.769 88.5881 20.6158 88.5881 21.6926V22.7012H83.6664C83.6866 23.2978 83.8611 23.7629 84.1897 24.0966C84.5234 24.4252 84.9834 24.5895 85.5699 24.5895C86.4445 24.5895 87.3065 24.3898 88.1558 23.9904V25.5981ZM97.0662 23.6112C97.0662 23.8994 97.1471 24.1168 97.3089 24.2634C97.4707 24.405 97.7159 24.4757 98.0445 24.4757C98.3731 24.4757 98.7877 24.3974 99.2882 24.2406V25.7877C98.7725 26.0202 98.1178 26.1365 97.3241 26.1365C96.5354 26.1365 95.9489 25.9292 95.5647 25.5147C95.1805 25.1001 94.9884 24.4656 94.9884 23.6112V19.9333H93.9874V19.0536L95.1325 18.3559L95.7391 16.7482H97.0662V18.3711H99.2047V19.9333H97.0662V23.6112ZM105.479 20.4641C105.231 20.09 104.832 19.9029 104.281 19.9029C103.73 19.9029 103.33 20.09 103.083 20.4641C102.835 20.8332 102.711 21.4044 102.711 22.178C102.711 22.9464 102.837 23.5202 103.09 23.8994C103.343 24.2786 103.742 24.4681 104.288 24.4681C104.834 24.4681 105.231 24.2786 105.479 23.8994C105.732 23.5202 105.858 22.9464 105.858 22.178C105.858 21.4044 105.732 20.8332 105.479 20.4641ZM104.304 18.227C105.411 18.2118 106.306 18.5683 106.988 19.2963C107.671 20.0192 108.002 20.9772 107.982 22.1704C107.982 23.4141 107.653 24.3873 106.996 25.09C106.344 25.7877 105.434 26.1365 104.266 26.1365C103.159 26.1466 102.264 25.7877 101.581 25.0597C100.904 24.3316 100.573 23.3686 100.588 22.1704C100.588 20.9267 100.911 19.9585 101.558 19.2659C102.211 18.5733 103.126 18.227 104.304 18.227ZM120.852 24.2558V26H113.428V24.6274L118.213 17.772H113.556V16.0202H120.723V17.3852L115.945 24.2558H120.852ZM127.108 21.321C127.102 20.8104 126.971 20.4135 126.713 20.1304C126.455 19.8473 126.104 19.7058 125.659 19.7058C125.219 19.7058 124.873 19.8473 124.62 20.1304C124.367 20.4085 124.223 20.8054 124.188 21.321H127.108ZM128.632 25.5981C127.914 25.957 127.019 26.1365 125.947 26.1365C124.719 26.1365 123.758 25.8003 123.066 25.1279C122.378 24.4505 122.034 23.4798 122.034 22.2159C122.034 20.952 122.353 19.9712 122.99 19.2735C123.637 18.5758 124.509 18.227 125.606 18.227C126.708 18.227 127.56 18.5354 128.162 19.1522C128.763 19.769 129.064 20.6158 129.064 21.6926V22.7012H124.142C124.163 23.2978 124.337 23.7629 124.666 24.0966C124.999 24.4252 125.459 24.5895 126.046 24.5895C126.92 24.5895 127.782 24.3898 128.632 23.9904V25.5981ZM138.029 21.0253V26H135.943V21.541C135.943 20.9848 135.844 20.5728 135.647 20.3049C135.45 20.0319 135.139 19.8953 134.715 19.8953C134.138 19.8953 133.719 20.09 133.456 20.4793C133.193 20.8635 133.061 21.5081 133.061 22.413V26H130.984V18.3711H132.576L132.857 19.3493H132.97C133.198 18.9853 133.514 18.7073 133.918 18.5152C134.328 18.3231 134.793 18.227 135.314 18.227C136.203 18.227 136.878 18.4671 137.338 18.9474C137.798 19.4226 138.029 20.1153 138.029 21.0253ZM144.609 18.3711V19.9333H142.812V26H140.727V19.9333H139.582V18.9323L140.727 18.3711V17.8099C140.727 16.9403 140.942 16.3059 141.371 15.9065C141.801 15.5071 142.486 15.3074 143.426 15.3074C144.144 15.3074 144.781 15.4135 145.337 15.6259L144.807 17.1577C144.382 17.0263 144.01 16.9606 143.692 16.9606C143.378 16.9606 143.153 17.044 143.017 17.2108C142.88 17.3777 142.812 17.6052 142.812 17.8933V18.3711H144.609ZM148.116 18.3711V26H146.038V18.3711H148.116ZM147.085 17.4232C146.326 17.4232 145.947 17.0844 145.947 16.407C145.947 15.7245 146.324 15.3832 147.077 15.3832C147.835 15.3832 148.214 15.7219 148.214 16.3994C148.214 16.728 148.118 16.9808 147.926 17.1577C147.734 17.3347 147.454 17.4232 147.085 17.4232ZM152.831 23.6112C152.831 23.8994 152.912 24.1168 153.074 24.2634C153.236 24.405 153.481 24.4757 153.809 24.4757C154.138 24.4757 154.552 24.3974 155.053 24.2406V25.7877C154.537 26.0202 153.883 26.1365 153.089 26.1365C152.3 26.1365 151.714 25.9292 151.33 25.5147C150.945 25.1001 150.753 24.4656 150.753 23.6112V19.9333H149.752V19.0536L150.897 18.3559L151.504 16.7482H152.831V18.3711H154.97V19.9333H152.831V23.6112ZM161.676 20.9722L165.043 26H162.632L160.311 22.2235L157.991 26H155.723L159.03 20.8509L155.935 16.0202H158.271L160.417 19.6148L162.525 16.0202H164.808L161.676 20.9722ZM169.094 25.0142C169.094 25.3782 168.988 25.6638 168.776 25.8711C168.568 26.0784 168.275 26.182 167.896 26.182C167.522 26.182 167.229 26.0809 167.016 25.8787C166.809 25.6764 166.705 25.3883 166.705 25.0142C166.705 24.64 166.807 24.3544 167.009 24.1572C167.216 23.9601 167.512 23.8615 167.896 23.8615C168.28 23.8615 168.576 23.9626 168.783 24.1648C168.991 24.367 169.094 24.6502 169.094 25.0142ZM169.094 16.0202L168.745 22.6936H167.085L166.736 16.0202H169.094Z" fill="white"/>
<path d="M31.9541 34.8888C32.7562 35.6909 33.1573 36.8375 33.1573 38.3286C33.1573 39.8197 32.7397 40.971 31.9045 41.7826C31.0741 42.5942 29.8732 43 28.3019 43H25.7255V33.6855H28.5779C30.0265 33.6855 31.1519 34.0866 31.9541 34.8888ZM28.1249 42.0657C29.4131 42.0657 30.3828 41.7496 31.0339 41.1173C31.6851 40.4803 32.0107 39.5484 32.0107 38.3215C32.0107 37.09 31.7063 36.1675 31.0976 35.5541C30.4889 34.936 29.583 34.6269 28.3797 34.6269H26.8085V42.0657H28.1249ZM36.2722 34.6552C36.1542 34.7732 36.0032 34.8322 35.8192 34.8322C35.6352 34.8322 35.4866 34.7732 35.3733 34.6552C35.2601 34.5325 35.2035 34.3556 35.2035 34.1244C35.2035 33.8932 35.2601 33.7186 35.3733 33.6006C35.4866 33.4826 35.6352 33.4237 35.8192 33.4237C36.0032 33.4237 36.1542 33.485 36.2722 33.6077C36.3902 33.7256 36.4492 33.9002 36.4492 34.1314C36.4492 34.3579 36.3902 34.5325 36.2722 34.6552ZM36.3501 36.0212V43H35.2884V36.0212H36.3501ZM43.3019 41.0961C43.3019 41.7472 43.0589 42.2497 42.5729 42.6036C42.0916 42.9528 41.4003 43.1274 40.4991 43.1274C39.5978 43.1274 38.8877 42.9811 38.3686 42.6886V41.7048C39.0953 42.0728 39.8267 42.2568 40.5628 42.2568C41.7094 42.2568 42.2827 41.9006 42.2827 41.1881C42.2827 40.9144 42.1624 40.6808 41.9217 40.4874C41.6811 40.2892 41.2328 40.0674 40.5769 39.822C39.921 39.572 39.4492 39.3549 39.1614 39.1709C38.6187 38.8028 38.3474 38.3286 38.3474 37.7482C38.3474 37.1678 38.5786 36.7149 39.041 36.3893C39.5035 36.059 40.1263 35.8938 40.9096 35.8938C41.6976 35.8938 42.4455 36.0448 43.1533 36.3468L42.7781 37.2103C42.0845 36.9225 41.4687 36.7786 40.9308 36.7786C40.3976 36.7786 40.0013 36.8564 39.7417 37.0121C39.4869 37.1631 39.3595 37.3802 39.3595 37.6633C39.3595 37.8426 39.4044 38.0007 39.494 38.1375C39.5884 38.2696 39.7417 38.397 39.9541 38.5197C40.1664 38.6377 40.5769 38.8075 41.1856 39.0293C42.0161 39.336 42.5752 39.6427 42.8631 39.9494C43.1556 40.2514 43.3019 40.6336 43.3019 41.0961ZM48.0198 43.1274C47.0053 43.1274 46.2196 42.816 45.6628 42.1931C45.1108 41.5703 44.8347 40.6855 44.8347 39.5389C44.8347 38.3876 45.1155 37.4911 45.677 36.8493C46.2432 36.2123 47.0454 35.8938 48.0835 35.8938C48.4232 35.8938 48.7606 35.9292 49.0956 36C49.4306 36.0708 49.6925 36.1557 49.8812 36.2548L49.5557 37.1537C49.0319 36.9366 48.5341 36.8281 48.0622 36.8281C46.6419 36.8281 45.9318 37.7317 45.9318 39.5389C45.9318 40.4024 46.1064 41.063 46.4556 41.5207C46.8047 41.9784 47.3167 42.2073 47.9915 42.2073C48.5671 42.2073 49.164 42.0799 49.7821 41.8251V42.7664C49.315 43.0071 48.7275 43.1274 48.0198 43.1274ZM52.1082 36.8423C52.6838 36.21 53.4671 35.8938 54.458 35.8938C55.4489 35.8938 56.2322 36.2194 56.8079 36.8706C57.3835 37.517 57.6714 38.4018 57.6714 39.5248C57.6714 40.6431 57.3835 41.5254 56.8079 42.1719C56.2322 42.8089 55.4418 43.1274 54.4368 43.1274C53.4884 43.1368 52.7169 42.8089 52.1223 42.1436C51.5278 41.4783 51.2376 40.5982 51.2518 39.5035C51.2518 38.3616 51.5372 37.4746 52.1082 36.8423ZM54.4439 36.7927C53.0472 36.7927 52.3488 37.6963 52.3488 39.5035C52.3488 40.3953 52.5258 41.0748 52.8797 41.542C53.2383 42.0091 53.7644 42.2427 54.458 42.2427C55.1517 42.2427 55.6778 42.0115 56.0364 41.549C56.395 41.0819 56.5743 40.4024 56.5743 39.5106C56.5743 38.6141 56.395 37.937 56.0364 37.4793C55.6778 37.0216 55.1469 36.7927 54.4439 36.7927ZM62.2337 43H60.9951L58.348 36.0212H59.4804L60.988 40.1618C61.3278 41.1385 61.5259 41.7661 61.5826 42.0445H61.6321C61.684 41.8133 61.8161 41.391 62.0285 40.7776C62.2455 40.1641 62.8188 38.5787 63.7484 36.0212H64.8808L62.2337 43ZM69.1629 43.1274C68.1295 43.1274 67.3132 42.8136 66.714 42.186C66.1194 41.5585 65.8221 40.6832 65.8221 39.5602C65.8221 38.4371 66.0982 37.5453 66.6503 36.8847C67.2118 36.2241 67.9431 35.8938 68.8444 35.8938C69.7504 35.8938 70.4581 36.1817 70.9677 36.7573C71.4774 37.333 71.7322 38.0903 71.7322 39.0293V39.7017H66.9192C66.9428 40.518 67.1504 41.1409 67.5421 41.5703C67.9337 41.9949 68.4976 42.2073 69.2337 42.2073C69.9745 42.2073 70.7059 42.0492 71.4278 41.7331V42.6744C71.0645 42.8349 70.7129 42.9505 70.3732 43.0212C70.0335 43.092 69.63 43.1274 69.1629 43.1274ZM70.5997 38.8382C70.5997 38.1729 70.4511 37.6633 70.1538 37.3094C69.8565 36.9555 69.4295 36.7786 68.8727 36.7786C68.3206 36.7786 67.8747 36.9602 67.535 37.3236C67.2 37.6869 67.0041 38.1918 66.9475 38.8382H70.5997ZM76.9209 35.8938C77.2418 35.8938 77.5202 35.9174 77.7561 35.9646L77.6146 36.9484C77.3362 36.8871 77.0814 36.8564 76.8501 36.8564C76.2839 36.8564 75.8003 37.0853 75.3992 37.543C74.9981 38.0007 74.7976 38.5716 74.7976 39.2558V43H73.7359V36.0212H74.6135L74.7339 37.3094H74.7834C75.0429 36.8517 75.3544 36.5025 75.7177 36.2619C76.0857 36.0165 76.4868 35.8938 76.9209 35.8938ZM86.9003 34.726C86.6833 34.5184 86.3884 34.4146 86.0156 34.4146C85.6428 34.4146 85.3385 34.5184 85.1026 34.726C84.8714 34.9289 84.7557 35.1884 84.7557 35.5045C84.7557 35.816 84.8289 36.1062 84.9752 36.3751C85.1262 36.6394 85.3904 36.9602 85.7679 37.3377C86.3152 37.0169 86.6951 36.7243 86.9074 36.4601C87.1245 36.1911 87.233 35.8868 87.233 35.547C87.233 35.2026 87.1221 34.9289 86.9003 34.726ZM85.7396 42.179C86.7682 42.179 87.6176 41.851 88.2876 41.1951L85.506 38.4985C85.0247 38.791 84.6897 39.0293 84.5009 39.2133C84.1187 39.5814 83.9276 40.0249 83.9276 40.544C83.9276 41.0583 84.0928 41.4594 84.4231 41.7472C84.7534 42.0351 85.1922 42.179 85.7396 42.179ZM82.8376 40.5865C82.8376 40.0391 82.9839 39.5507 83.2765 39.1213C83.5785 38.6919 84.1093 38.2626 84.869 37.8332C84.5057 37.4274 84.2579 37.123 84.1258 36.9201C83.8474 36.4577 83.7082 36.0071 83.7082 35.5683C83.7082 34.9312 83.9158 34.4358 84.3311 34.0819C84.7463 33.7233 85.3125 33.544 86.0298 33.544C86.7517 33.544 87.3085 33.7209 87.7001 34.0748C88.0918 34.4287 88.2876 34.9218 88.2876 35.5541C88.2876 36.0071 88.1413 36.427 87.8488 36.814C87.5609 37.2009 87.0844 37.5902 86.419 37.9818L89.0166 40.4732C89.413 40.0297 89.722 39.3337 89.9438 38.3852H91.0126C90.72 39.5979 90.2859 40.518 89.7102 41.1456L91.6142 43H90.1562L88.9742 41.8675C88.4787 42.3111 87.9715 42.632 87.4524 42.8301C86.9381 43.0283 86.3577 43.1274 85.7113 43.1274C84.8006 43.1274 84.0928 42.9033 83.5879 42.455C83.0877 42.002 82.8376 41.3792 82.8376 40.5865ZM97.9911 36.9484C98.4771 36.2501 99.1943 35.9009 100.143 35.9009C101.091 35.9009 101.818 36.2171 102.323 36.8493C102.828 37.4769 103.08 38.364 103.08 39.5106C103.08 40.6572 102.823 41.5467 102.309 42.179C101.799 42.8113 101.075 43.1274 100.136 43.1274C99.2014 43.1274 98.4865 42.7853 97.9911 42.1011H97.9132L97.6867 43H96.9294V33.091H97.9911V35.4975C97.9911 36.0637 97.9746 36.5474 97.9415 36.9484H97.9911ZM101.502 41.542C101.823 41.0701 101.983 40.3836 101.983 39.4823C101.983 38.5763 101.823 37.9016 101.502 37.458C101.186 37.0145 100.678 36.7927 99.98 36.7927C99.2863 36.7927 98.7814 36.998 98.4653 37.4085C98.1491 37.819 97.9911 38.5174 97.9911 39.5035C97.9911 40.485 98.1539 41.1881 98.4794 41.6127C98.805 42.0327 99.3288 42.2427 100.051 42.2427C100.697 42.2427 101.181 42.0091 101.502 41.542ZM105.591 36.8423C106.167 36.21 106.95 35.8938 107.941 35.8938C108.932 35.8938 109.715 36.2194 110.291 36.8706C110.866 37.517 111.154 38.4018 111.154 39.5248C111.154 40.6431 110.866 41.5254 110.291 42.1719C109.715 42.8089 108.925 43.1274 107.92 43.1274C106.971 43.1368 106.2 42.8089 105.605 42.1436C105.011 41.4783 104.72 40.5982 104.734 39.5035C104.734 38.3616 105.02 37.4746 105.591 36.8423ZM107.927 36.7927C106.53 36.7927 105.832 37.6963 105.832 39.5035C105.832 40.3953 106.009 41.0748 106.362 41.542C106.721 42.0091 107.247 42.2427 107.941 42.2427C108.634 42.2427 109.161 42.0115 109.519 41.549C109.878 41.0819 110.057 40.4024 110.057 39.5106C110.057 38.6141 109.878 37.937 109.519 37.4793C109.161 37.0216 108.63 36.7927 107.927 36.7927ZM113.676 36.8423C114.252 36.21 115.035 35.8938 116.026 35.8938C117.017 35.8938 117.8 36.2194 118.376 36.8706C118.951 37.517 119.239 38.4018 119.239 39.5248C119.239 40.6431 118.951 41.5254 118.376 42.1719C117.8 42.8089 117.01 43.1274 116.005 43.1274C115.056 43.1368 114.285 42.8089 113.69 42.1436C113.096 41.4783 112.805 40.5982 112.819 39.5035C112.819 38.3616 113.105 37.4746 113.676 36.8423ZM116.012 36.7927C114.615 36.7927 113.917 37.6963 113.917 39.5035C113.917 40.3953 114.094 41.0748 114.447 41.542C114.806 42.0091 115.332 42.2427 116.026 42.2427C116.719 42.2427 117.246 42.0115 117.604 41.549C117.963 41.0819 118.142 40.4024 118.142 39.5106C118.142 38.6141 117.963 37.937 117.604 37.4793C117.246 37.0216 116.715 36.7927 116.012 36.7927ZM122.341 43H121.294V33.091H122.341V38.3428C122.341 38.607 122.325 38.968 122.292 39.4257H122.341C122.535 39.152 122.813 38.8123 123.176 38.4065L125.427 36.0212H126.687L123.856 38.9939L126.885 43H125.604L123.134 39.7017L122.341 40.3883V43ZM135.473 36.0212V36.8423H133.696V43H132.635V36.8423H131.389V36.361L132.635 35.9788V35.5895C132.635 33.8766 133.385 33.0202 134.885 33.0202C135.258 33.0202 135.692 33.0934 136.188 33.2396L135.912 34.089C135.515 33.9569 135.166 33.8908 134.864 33.8908C134.463 33.8908 134.168 34.0253 133.979 34.2942C133.791 34.5632 133.696 34.9879 133.696 35.5683V36.0212H135.473ZM137.947 34.6552C137.829 34.7732 137.678 34.8322 137.494 34.8322C137.31 34.8322 137.161 34.7732 137.048 34.6552C136.935 34.5325 136.878 34.3556 136.878 34.1244C136.878 33.8932 136.935 33.7186 137.048 33.6006C137.161 33.4826 137.31 33.4237 137.494 33.4237C137.678 33.4237 137.829 33.485 137.947 33.6077C138.065 33.7256 138.124 33.9002 138.124 34.1314C138.124 34.3579 138.065 34.5325 137.947 34.6552ZM138.025 36.0212V43H136.963V36.0212H138.025ZM141.607 40.9474C141.607 41.3674 141.704 41.6906 141.897 41.9171C142.096 42.1436 142.365 42.2568 142.704 42.2568C143.049 42.2568 143.374 42.2144 143.681 42.1294V42.9363C143.573 42.9882 143.4 43.033 143.164 43.0708C142.933 43.1085 142.735 43.1274 142.57 43.1274C141.22 43.1274 140.546 42.4173 140.546 40.997V36.8423H139.548V36.3327L140.546 35.8938L140.992 34.4004H141.607V36.0212H143.632V36.8423H141.607V40.9474ZM151.124 43H150.063V38.4843C150.063 37.9087 149.933 37.484 149.673 37.2103C149.414 36.9319 149.01 36.7927 148.463 36.7927C147.732 36.7927 147.196 36.9909 146.856 37.3873C146.517 37.7789 146.347 38.4301 146.347 39.3407V43H145.285V36.0212H146.149L146.319 36.9767H146.368C146.585 36.637 146.889 36.3728 147.281 36.184C147.673 35.9906 148.109 35.8938 148.591 35.8938C149.44 35.8938 150.075 36.0991 150.494 36.5096C150.914 36.9201 151.124 37.5666 151.124 38.4489V43ZM156.458 43.1274C155.425 43.1274 154.609 42.8136 154.009 42.186C153.415 41.5585 153.118 40.6832 153.118 39.5602C153.118 38.4371 153.394 37.5453 153.946 36.8847C154.507 36.2241 155.239 35.8938 156.14 35.8938C157.046 35.8938 157.754 36.1817 158.263 36.7573C158.773 37.333 159.028 38.0903 159.028 39.0293V39.7017H154.215C154.238 40.518 154.446 41.1409 154.838 41.5703C155.229 41.9949 155.793 42.2073 156.529 42.2073C157.27 42.2073 158.001 42.0492 158.723 41.7331V42.6744C158.36 42.8349 158.008 42.9505 157.669 43.0212C157.329 43.092 156.926 43.1274 156.458 43.1274ZM157.895 38.8382C157.895 38.1729 157.747 37.6633 157.449 37.3094C157.152 36.9555 156.725 36.7786 156.168 36.7786C155.616 36.7786 155.17 36.9602 154.83 37.3236C154.495 37.6869 154.3 38.1918 154.243 38.8382H157.895ZM165.54 41.0961C165.54 41.7472 165.297 42.2497 164.811 42.6036C164.33 42.9528 163.638 43.1274 162.737 43.1274C161.836 43.1274 161.126 42.9811 160.607 42.6886V41.7048C161.333 42.0728 162.065 42.2568 162.801 42.2568C163.947 42.2568 164.521 41.9006 164.521 41.1881C164.521 40.9144 164.4 40.6808 164.16 40.4874C163.919 40.2892 163.471 40.0674 162.815 39.822C162.159 39.572 161.687 39.3549 161.399 39.1709C160.857 38.8028 160.585 38.3286 160.585 37.7482C160.585 37.1678 160.817 36.7149 161.279 36.3893C161.742 36.059 162.364 35.8938 163.148 35.8938C163.936 35.8938 164.684 36.0448 165.391 36.3468L165.016 37.2103C164.323 36.9225 163.707 36.7786 163.169 36.7786C162.636 36.7786 162.239 36.8564 161.98 37.0121C161.725 37.1631 161.598 37.3802 161.598 37.6633C161.598 37.8426 161.642 38.0007 161.732 38.1375C161.826 38.2696 161.98 38.397 162.192 38.5197C162.404 38.6377 162.815 38.8075 163.424 39.0293C164.254 39.336 164.813 39.6427 165.101 39.9494C165.394 40.2514 165.54 40.6336 165.54 41.0961ZM171.971 41.0961C171.971 41.7472 171.728 42.2497 171.242 42.6036C170.76 42.9528 170.069 43.1274 169.168 43.1274C168.267 43.1274 167.556 42.9811 167.037 42.6886V41.7048C167.764 42.0728 168.495 42.2568 169.232 42.2568C170.378 42.2568 170.951 41.9006 170.951 41.1881C170.951 40.9144 170.831 40.6808 170.59 40.4874C170.35 40.2892 169.902 40.0674 169.246 39.822C168.59 39.572 168.118 39.3549 167.83 39.1709C167.287 38.8028 167.016 38.3286 167.016 37.7482C167.016 37.1678 167.247 36.7149 167.71 36.3893C168.172 36.059 168.795 35.8938 169.578 35.8938C170.366 35.8938 171.114 36.0448 171.822 36.3468L171.447 37.2103C170.753 36.9225 170.137 36.7786 169.6 36.7786C169.066 36.7786 168.67 36.8564 168.41 37.0121C168.156 37.1631 168.028 37.3802 168.028 37.6633C168.028 37.8426 168.073 38.0007 168.163 38.1375C168.257 38.2696 168.41 38.397 168.623 38.5197C168.835 38.6377 169.246 38.8075 169.854 39.0293C170.685 39.336 171.244 39.6427 171.532 39.9494C171.824 40.2514 171.971 40.6336 171.971 41.0961ZM178.45 41.0819C178.45 41.4594 178.566 41.7496 178.797 41.9525C179.028 42.1554 179.351 42.2568 179.766 42.2568C180.432 42.2568 180.951 42.0775 181.324 41.7189C181.696 41.3556 181.883 40.8483 181.883 40.1972V39.5672L180.828 39.6097C179.988 39.6427 179.382 39.7749 179.009 40.0061C178.636 40.2373 178.45 40.5959 178.45 41.0819ZM182.944 43H182.159L181.946 42.0091H181.897C181.548 42.4432 181.201 42.7381 180.856 42.8938C180.512 43.0495 180.08 43.1274 179.561 43.1274C178.863 43.1274 178.318 42.9481 177.926 42.5895C177.539 42.2309 177.346 41.7236 177.346 41.0677C177.346 39.6616 178.471 38.9232 180.722 38.8524L181.911 38.817V38.3852C181.911 37.8284 181.793 37.4226 181.557 37.1678C181.321 36.9083 180.927 36.7786 180.375 36.7786C179.828 36.7786 179.186 36.9555 178.45 37.3094L178.124 36.5025C178.86 36.1014 179.648 35.9009 180.488 35.9009C181.328 35.9009 181.946 36.0873 182.343 36.4601C182.744 36.8328 182.944 37.425 182.944 38.2366V43ZM188.128 43.1274C187.114 43.1274 186.328 42.816 185.771 42.1931C185.219 41.5703 184.943 40.6855 184.943 39.5389C184.943 38.3876 185.224 37.4911 185.785 36.8493C186.352 36.2123 187.154 35.8938 188.192 35.8938C188.531 35.8938 188.869 35.9292 189.204 36C189.539 36.0708 189.801 36.1557 189.99 36.2548L189.664 37.1537C189.14 36.9366 188.642 36.8281 188.171 36.8281C186.75 36.8281 186.04 37.7317 186.04 39.5389C186.04 40.4024 186.215 41.063 186.564 41.5207C186.913 41.9784 187.425 42.2073 188.1 42.2073C188.675 42.2073 189.272 42.0799 189.89 41.8251V42.7664C189.423 43.0071 188.836 43.1274 188.128 43.1274ZM192.889 40.9474C192.889 41.3674 192.986 41.6906 193.179 41.9171C193.377 42.1436 193.646 42.2568 193.986 42.2568C194.33 42.2568 194.656 42.2144 194.963 42.1294V42.9363C194.854 42.9882 194.682 43.033 194.446 43.0708C194.215 43.1085 194.017 43.1274 193.851 43.1274C192.502 43.1274 191.827 42.4173 191.827 40.997V36.8423H190.829V36.3327L191.827 35.8938L192.273 34.4004H192.889V36.0212H194.913V36.8423H192.889V40.9474ZM197.551 34.6552C197.433 34.7732 197.282 34.8322 197.098 34.8322C196.914 34.8322 196.765 34.7732 196.652 34.6552C196.538 34.5325 196.482 34.3556 196.482 34.1244C196.482 33.8932 196.538 33.7186 196.652 33.6006C196.765 33.4826 196.914 33.4237 197.098 33.4237C197.282 33.4237 197.433 33.485 197.551 33.6077C197.669 33.7256 197.728 33.9002 197.728 34.1314C197.728 34.3579 197.669 34.5325 197.551 34.6552ZM197.628 36.0212V43H196.567V36.0212H197.628ZM202.839 43H201.6L198.953 36.0212H200.086L201.593 40.1618C201.933 41.1385 202.131 41.7661 202.188 42.0445H202.237C202.289 41.8133 202.422 41.391 202.634 40.7776C202.851 40.1641 203.424 38.5787 204.354 36.0212H205.486L202.839 43ZM207.801 34.6552C207.683 34.7732 207.532 34.8322 207.348 34.8322C207.164 34.8322 207.015 34.7732 206.902 34.6552C206.789 34.5325 206.732 34.3556 206.732 34.1244C206.732 33.8932 206.789 33.7186 206.902 33.6006C207.015 33.4826 207.164 33.4237 207.348 33.4237C207.532 33.4237 207.683 33.485 207.801 33.6077C207.919 33.7256 207.978 33.9002 207.978 34.1314C207.978 34.3579 207.919 34.5325 207.801 34.6552ZM207.878 36.0212V43H206.817V36.0212H207.878ZM211.461 40.9474C211.461 41.3674 211.558 41.6906 211.751 41.9171C211.95 42.1436 212.219 42.2568 212.558 42.2568C212.903 42.2568 213.228 42.2144 213.535 42.1294V42.9363C213.427 42.9882 213.254 43.033 213.018 43.0708C212.787 43.1085 212.589 43.1274 212.424 43.1274C211.074 43.1274 210.4 42.4173 210.4 40.997V36.8423H209.402V36.3327L210.4 35.8938L210.846 34.4004H211.461V36.0212H213.486V36.8423H211.461V40.9474ZM216.123 34.6552C216.005 34.7732 215.854 34.8322 215.67 34.8322C215.486 34.8322 215.337 34.7732 215.224 34.6552C215.111 34.5325 215.054 34.3556 215.054 34.1244C215.054 33.8932 215.111 33.7186 215.224 33.6006C215.337 33.4826 215.486 33.4237 215.67 33.4237C215.854 33.4237 216.005 33.485 216.123 33.6077C216.241 33.7256 216.3 33.9002 216.3 34.1314C216.3 34.3579 216.241 34.5325 216.123 34.6552ZM216.201 36.0212V43H215.139V36.0212H216.201ZM221.596 43.1274C220.562 43.1274 219.746 42.8136 219.147 42.186C218.552 41.5585 218.255 40.6832 218.255 39.5602C218.255 38.4371 218.531 37.5453 219.083 36.8847C219.644 36.2241 220.376 35.8938 221.277 35.8938C222.183 35.8938 222.891 36.1817 223.4 36.7573C223.91 37.333 224.165 38.0903 224.165 39.0293V39.7017H219.352C219.375 40.518 219.583 41.1409 219.975 41.5703C220.366 41.9949 220.93 42.2073 221.666 42.2073C222.407 42.2073 223.139 42.0492 223.86 41.7331V42.6744C223.497 42.8349 223.146 42.9505 222.806 43.0212C222.466 43.092 222.063 43.1274 221.596 43.1274ZM223.032 38.8382C223.032 38.1729 222.884 37.6633 222.586 37.3094C222.289 36.9555 221.862 36.7786 221.305 36.7786C220.753 36.7786 220.307 36.9602 219.968 37.3236C219.633 37.6869 219.437 38.1918 219.38 38.8382H223.032ZM230.677 41.0961C230.677 41.7472 230.434 42.2497 229.948 42.6036C229.467 42.9528 228.776 43.1274 227.874 43.1274C226.973 43.1274 226.263 42.9811 225.744 42.6886V41.7048C226.471 42.0728 227.202 42.2568 227.938 42.2568C229.085 42.2568 229.658 41.9006 229.658 41.1881C229.658 40.9144 229.538 40.6808 229.297 40.4874C229.056 40.2892 228.608 40.0674 227.952 39.822C227.296 39.572 226.824 39.3549 226.537 39.1709C225.994 38.8028 225.723 38.3286 225.723 37.7482C225.723 37.1678 225.954 36.7149 226.416 36.3893C226.879 36.059 227.502 35.8938 228.285 35.8938C229.073 35.8938 229.821 36.0448 230.528 36.3468L230.153 37.2103C229.46 36.9225 228.844 36.7786 228.306 36.7786C227.773 36.7786 227.376 36.8564 227.117 37.0121C226.862 37.1631 226.735 37.3802 226.735 37.6633C226.735 37.8426 226.78 38.0007 226.869 38.1375C226.964 38.2696 227.117 38.397 227.329 38.5197C227.542 38.6377 227.952 38.8075 228.561 39.0293C229.391 39.336 229.95 39.6427 230.238 39.9494C230.531 40.2514 230.677 40.6336 230.677 41.0961ZM242.408 43H241.347V38.4843C241.347 37.9087 241.217 37.484 240.957 37.2103C240.698 36.9319 240.294 36.7927 239.747 36.7927C239.016 36.7927 238.48 36.9909 238.14 37.3873C237.801 37.7789 237.631 38.4301 237.631 39.3407V43H236.569V36.0212H237.433L237.602 36.9767H237.652C237.869 36.637 238.173 36.3728 238.565 36.184C238.957 35.9906 239.393 35.8938 239.874 35.8938C240.724 35.8938 241.358 36.0991 241.778 36.5096C242.198 36.9201 242.408 37.5666 242.408 38.4489V43ZM247.742 43.1274C246.709 43.1274 245.893 42.8136 245.293 42.186C244.699 41.5585 244.401 40.6832 244.401 39.5602C244.401 38.4371 244.677 37.5453 245.23 36.8847C245.791 36.2241 246.522 35.8938 247.424 35.8938C248.33 35.8938 249.037 36.1817 249.547 36.7573C250.057 37.333 250.311 38.0903 250.311 39.0293V39.7017H245.499C245.522 40.518 245.73 41.1409 246.121 41.5703C246.513 41.9949 247.077 42.2073 247.813 42.2073C248.554 42.2073 249.285 42.0492 250.007 41.7331V42.6744C249.644 42.8349 249.292 42.9505 248.953 43.0212C248.613 43.092 248.209 43.1274 247.742 43.1274ZM249.179 38.8382C249.179 38.1729 249.03 37.6633 248.733 37.3094C248.436 36.9555 248.009 36.7786 247.452 36.7786C246.9 36.7786 246.454 36.9602 246.114 37.3236C245.779 37.6869 245.583 38.1918 245.527 38.8382H249.179ZM252.903 41.0819C252.903 41.4594 253.018 41.7496 253.249 41.9525C253.481 42.1554 253.804 42.2568 254.219 42.2568C254.884 42.2568 255.403 42.0775 255.776 41.7189C256.149 41.3556 256.335 40.8483 256.335 40.1972V39.5672L255.281 39.6097C254.441 39.6427 253.835 39.7749 253.462 40.0061C253.089 40.2373 252.903 40.5959 252.903 41.0819ZM257.397 43H256.611L256.399 42.0091H256.35C256 42.4432 255.654 42.7381 255.309 42.8938C254.965 43.0495 254.533 43.1274 254.014 43.1274C253.316 43.1274 252.771 42.9481 252.379 42.5895C251.992 42.2309 251.799 41.7236 251.799 41.0677C251.799 39.6616 252.924 38.9232 255.175 38.8524L256.364 38.817V38.3852C256.364 37.8284 256.246 37.4226 256.01 37.1678C255.774 36.9083 255.38 36.7786 254.828 36.7786C254.28 36.7786 253.639 36.9555 252.903 37.3094L252.577 36.5025C253.313 36.1014 254.101 35.9009 254.941 35.9009C255.781 35.9009 256.399 36.0873 256.795 36.4601C257.197 36.8328 257.397 37.425 257.397 38.2366V43ZM262.97 35.8938C263.291 35.8938 263.569 35.9174 263.805 35.9646L263.664 36.9484C263.385 36.8871 263.13 36.8564 262.899 36.8564C262.333 36.8564 261.849 37.0853 261.448 37.543C261.047 38.0007 260.847 38.5716 260.847 39.2558V43H259.785V36.0212H260.663L260.783 37.3094H260.832C261.092 36.8517 261.403 36.5025 261.767 36.2619C262.135 36.0165 262.536 35.8938 262.97 35.8938ZM269.219 46.1355C268.903 46.1355 268.585 46.1001 268.264 46.0293V45.18C268.509 45.2319 268.771 45.2578 269.049 45.2578C269.776 45.2578 270.295 44.8497 270.607 44.0334L270.996 43.0354L268.179 36.0212H269.311L270.84 39.999C271.185 40.9427 271.392 41.5986 271.463 41.9666H271.513C271.574 41.726 271.685 41.365 271.845 40.8837C272.01 40.4024 272.593 38.7816 273.593 36.0212H274.726L271.725 43.9697C271.432 44.7482 271.088 45.3027 270.692 45.633C270.295 45.968 269.804 46.1355 269.219 46.1355ZM276.536 36.8423C277.112 36.21 277.895 35.8938 278.886 35.8938C279.877 35.8938 280.66 36.2194 281.236 36.8706C281.812 37.517 282.1 38.4018 282.1 39.5248C282.1 40.6431 281.812 41.5254 281.236 42.1719C280.66 42.8089 279.87 43.1274 278.865 43.1274C277.917 43.1368 277.145 42.8089 276.551 42.1436C275.956 41.4783 275.666 40.5982 275.68 39.5035C275.68 38.3616 275.965 37.4746 276.536 36.8423ZM278.872 36.7927C277.475 36.7927 276.777 37.6963 276.777 39.5035C276.777 40.3953 276.954 41.0748 277.308 41.542C277.666 42.0091 278.193 42.2427 278.886 42.2427C279.58 42.2427 280.106 42.0115 280.465 41.549C280.823 41.0819 281.003 40.4024 281.003 39.5106C281.003 38.6141 280.823 37.937 280.465 37.4793C280.106 37.0216 279.575 36.7927 278.872 36.7927ZM284.083 36.0212H285.152V40.5511C285.152 41.122 285.282 41.5467 285.542 41.8251C285.806 42.1035 286.212 42.2427 286.759 42.2427C287.49 42.2427 288.023 42.0421 288.358 41.6411C288.694 41.24 288.861 40.5888 288.861 39.6876V36.0212H289.923V43H289.052L288.896 42.0657H288.84C288.623 42.4055 288.323 42.6673 287.941 42.8514C287.559 43.0354 287.12 43.1274 286.624 43.1274C285.766 43.1274 285.126 42.9245 284.706 42.5187C284.291 42.1082 284.083 41.4641 284.083 40.5865V36.0212ZM293.961 33.6855L293.636 40.4307H292.971L292.645 33.6855H293.961ZM293.862 42.9575C293.725 43.1085 293.537 43.184 293.296 43.184C293.06 43.184 292.874 43.1132 292.737 42.9717C292.6 42.8301 292.532 42.6154 292.532 42.3276C292.532 41.7472 292.786 41.457 293.296 41.457C293.541 41.457 293.73 41.5325 293.862 41.6835C293.999 41.8298 294.068 42.0421 294.068 42.3205C294.068 42.5942 293.999 42.8065 293.862 42.9575Z" fill="white"/>
<defs>
<linearGradient id="paint0_linear_414_2849" x1="8.9359" y1="2.51181" x2="207.37" y2="179.332" gradientUnits="userSpaceOnUse">
<stop stop-color="#99205D"/>
<stop offset="1" stop-color="#7ACBF8"/>
</linearGradient>
</defs>
</svg>
